<?xml version="1.0" standalone="no"?>
<!DOCTYPE svg PUBLIC "-//W3C//DTD SVG 20010904//EN"
 "http://www.w3.org/TR/2001/REC-SVG-20010904/DTD/svg10.dtd">
<svg version="1.0" xmlns="http://www.w3.org/2000/svg"
 width="1024.000000pt" height="1024.000000pt" viewBox="0 0 1024.000000 1024.000000"
 preserveAspectRatio="xMidYMid meet">

<g transform="translate(0.000000,1024.000000) scale(0.100000,-0.100000)"
fill="#000000" stroke="none">
<path d="M2170 4873 c1 -705 3 -734 66 -862 45 -90 133 -183 219 -228 111 -58
185 -75 345 -80 168 -6 269 12 387 69 89 43 209 160 246 240 62 132 61 112 65
831 l3 657 -155 0 -156 0 0 -637 c0 -662 -2 -690 -43 -768 -23 -45 -86 -101
-142 -127 -43 -20 -66 -23 -170 -23 -108 0 -125 3 -175 26 -70 33 -116 79
-149 149 l-26 55 -5 660 -5 660 -152 3 -153 3 0 -628z"/>
<path d="M3830 4610 l0 -890 155 0 155 0 0 248 c0 136 -7 423 -16 638 -8 215
-14 410 -12 433 3 38 34 -40 262 -638 l259 -682 110 3 109 3 261 683 c143 375
262 681 263 679 2 -1 -4 -160 -11 -352 -8 -193 -15 -500 -15 -682 l0 -333 150
0 150 0 0 890 0 890 -197 -2 -198 -3 -256 -684 -256 -684 -30 79 c-17 43 -133
352 -258 687 l-228 607 -198 0 -199 0 0 -890z"/>
<path d="M6545 5488 c-12 -34 -637 -1698 -650 -1731 l-15 -37 161 2 162 3 71
205 71 205 344 0 345 0 71 -205 71 -205 162 -3 162 -2 -13 32 c-7 18 -159 419
-337 891 l-324 857 -138 0 c-102 0 -140 -3 -143 -12z m276 -736 l126 -367
-255 -3 c-140 -1 -256 -1 -258 1 -5 4 249 737 256 737 3 0 62 -166 131 -368z"/>
<path d="M7720 4610 l0 -890 150 0 150 0 0 890 0 890 -150 0 -150 0 0 -890z"/>
</g>
</svg>
